<svg width="137" height="29" viewBox="0 0 137 29" fill="none" xmlns="http://www.w3.org/2000/svg">
<path d="M0.153499 17.8942C0.397899 17.8362 24.8152 12.0149 43.1998 3.86077C45.2449 2.95377 46.9008 2.41607 48.2956 2.16267C46.7329 3.73727 37.54 7.66267 44.882 8.35827C51.6186 8.99717 40.5214 16.9908 35.4343 19.897C22.0532 24.1397 13.3687 25.8059 13.2126 25.8355L13.3967 26.8171C13.4423 26.8084 14.2201 26.6593 15.6276 26.3479C23.0039 24.7154 47.7648 18.6021 76.1721 4.63167C80.1558 2.67247 83.4072 1.58597 86.1436 1.18277C85.3414 5.29857 76.0532 14.4 90.8867 16.6982C104.416 18.7942 77.2846 24.1161 67.1729 26.8258C65.7145 27.2167 64.6097 27.5533 64.0327 27.8177C59.5683 29.8654 111.467 28.0235 134.676 27.9302C135.433 27.9569 136.206 27.9722 137 27.9722V26.9733C116.27 26.9733 108.928 17.4936 103.028 9.87657C96.8975 1.96087 92.0551 -4.29228 75.7316 3.73527C71.9386 5.59947 68.1041 7.37817 64.2312 9.07017C60.8086 7.85217 58.7358 6.10037 56.9198 4.56267C53.5385 1.69947 51.0952 -0.369561 42.9304 3.25247C24.6028 11.3806 0.243734 17.1886 0 17.2462L0.153499 17.8942Z" fill="#FDFDFD"/>
</svg>
