<svg width="20" height="20" viewBox="0 0 20 20" fill="none" xmlns="http://www.w3.org/2000/svg">
<path d="M16.2475 6.65752L10 12.7475L3.75253 6.65752C3.64091 6.54849 3.49107 6.48746 3.33503 6.48746C3.179 6.48746 3.02916 6.54849 2.91753 6.65752C2.86349 6.71048 2.82055 6.77368 2.79124 6.84344C2.76192 6.9132 2.74683 6.98811 2.74683 7.06377C2.74683 7.13944 2.76192 7.21434 2.79124 7.2841C2.82055 7.35386 2.86349 7.41707 2.91753 7.47002L9.56378 13.95C9.6805 14.0638 9.83704 14.1275 10 14.1275C10.163 14.1275 10.3196 14.0638 10.4363 13.95L17.0825 7.47127C17.137 7.41828 17.1802 7.35491 17.2098 7.28493C17.2393 7.21494 17.2545 7.13974 17.2545 7.06377C17.2545 6.9878 17.2393 6.91261 17.2098 6.84262C17.1802 6.77263 17.137 6.70927 17.0825 6.65627C16.9709 6.54724 16.8211 6.48621 16.665 6.48621C16.509 6.48621 16.3592 6.54724 16.2475 6.65627V6.65752Z" fill="#FDFDFD"/>
</svg>
